<?xml version="1.0" encoding="utf-8"?>

<!-- License Agreement at http://iconmonstr.com/license/ -->

<!DOCTYPE svg PUBLIC "-//W3C//DTD SVG 1.1//EN" "http://www.w3.org/Graphics/SVG/1.1/DTD/svg11.dtd">
<svg version="1.1" xmlns="http://www.w3.org/2000/svg" xmlns:xlink="http://www.w3.org/1999/xlink" x="0px" y="0px"
	 width="512px" height="512px" viewBox="0 0 512 512" enable-background="new 0 0 512 512" xml:space="preserve">
<path id="briefcase-4-icon" d="M50,204.525v-43.441h412v45.439C462,298.773,50,296.061,50,204.525z M201.875,124.021
	c0-3.739,3.031-6.771,6.771-6.771h94.709c3.739,0,6.771,3.031,6.771,6.771v17.063h30v-30.563c0-11.747-9.523-21.271-21.271-21.271
	H193.146c-11.748,0-21.271,9.523-21.271,21.271v30.563h30V124.021z M453.945,264.061V422.75H58.055V262.064
	C136.432,315.969,374.994,317.849,453.945,264.061z M278.678,324h-45.355v17.896c0,12.524,10.154,22.678,22.678,22.678
	s22.678-10.153,22.678-22.678V324z"/>
</svg>
